{
    "asset" : {
        "generator" : "Khronos glTF Blender I/O v1.6.16",
        "version" : "2.0"
    },
    "scene" : 0,
    "scenes" : [
        {
            "name" : "Scene",
            "nodes" : [
                0,
                1,
                2,
                3,
                4
            ]
        }
    ],
    "nodes" : [
        {
            "name" : "Light",
            "rotation" : [
                0.16907575726509094,
                0.7558803558349609,
                -0.27217137813568115,
                0.570947527885437
            ],
            "translation" : [
                4.076245307922363,
                5.903861999511719,
                -1.0054539442062378
            ]
        },
        {
            "name" : "Camera",
            "rotation" : [
                0.483536034822464,
                0.33687159419059753,
                -0.20870360732078552,
                0.7804827094078064
            ],
            "translation" : [
                7.358891487121582,
                4.958309173583984,
                6.925790786743164
            ]
        },
        {
            "mesh" : 0,
            "name" : "Body",
            "scale" : [
                1,
                0.9269894957542419,
                1
            ]
        },
        {
            "mesh" : 1,
            "name" : "Head",
            "scale" : [
                0.6263138055801392,
                0.6263138055801392,
                0.6263138055801392
            ],
            "translation" : [
                0,
                0.811884343624115,
                0
            ]
        },
        {
            "mesh" : 2,
            "name" : "Hair",
            "scale" : [
                0.6263138055801392,
                0.6263138055801392,
                0.6263138055801392
            ],
            "translation" : [
                0,
                0.811884343624115,
                0
            ]
        }
    ],
    "materials" : [
        {
            "doubleSided" : true,
            "name" : "Material",
            "pbrMetallicRoughness" : {
                "baseColorTexture" : {
                    "index" : 0
                },
                "metallicFactor" : 0,
                "roughnessFactor" : 0.4000000059604645
            }
        }
    ],
    "meshes" : [
        {
            "name" : "Cone",
            "primitives" : [
                {
                    "attributes" : {
                        "POSITION" : 0,
                        "NORMAL" : 1,
                        "TEXCOORD_0" : 2
                    },
                    "indices" : 3,
                    "material" : 0
                }
            ]
        },
        {
            "name" : "Sphere",
            "primitives" : [
                {
                    "attributes" : {
                        "POSITION" : 4,
                        "NORMAL" : 5,
                        "TEXCOORD_0" : 6
                    },
                    "indices" : 7,
                    "material" : 0
                }
            ]
        },
        {
            "name" : "Sphere.001",
            "primitives" : [
                {
                    "attributes" : {
                        "POSITION" : 8,
                        "NORMAL" : 9,
                        "TEXCOORD_0" : 10
                    },
                    "indices" : 11,
                    "material" : 0
                }
            ]
        }
    ],
    "textures" : [
        {
            "sampler" : 0,
            "source" : 0
        }
    ],
    "images" : [
        {
            "bufferView" : 4,
            "mimeType" : "image/png",
            "name" : "PlayerModelTexture"
        }
    ],
    "accessors" : [
        {
            "bufferView" : 0,
            "componentType" : 5126,
            "count" : 844,
            "max" : [
                0.6363399028778076,
                0.4639299511909485,
                0.6363399028778076
            ],
            "min" : [
                -0.6363399028778076,
                -0.8493766188621521,
                -0.6363399028778076
            ],
            "type" : "VEC3"
        },
        {
            "bufferView" : 1,
            "componentType" : 5126,
            "count" : 844,
            "type" : "VEC3"
        },
        {
            "bufferView" : 2,
            "componentType" : 5126,
            "count" : 844,
            "type" : "VEC2"
        },
        {
            "bufferView" : 3,
            "componentType" : 5123,
            "count" : 3444,
            "type" : "SCALAR"
        },
        {
            "bufferView" : 5,
            "componentType" : 5126,
            "count" : 604,
            "max" : [
                0.9999997019767761,
                1,
                0.9999994039535522
            ],
            "min" : [
                -0.9999990463256836,
                -1,
                -0.9999987483024597
            ],
            "type" : "VEC3"
        },
        {
            "bufferView" : 6,
            "componentType" : 5126,
            "count" : 604,
            "type" : "VEC3"
        },
        {
            "bufferView" : 7,
            "componentType" : 5126,
            "count" : 604,
            "type" : "VEC2"
        },
        {
            "bufferView" : 8,
            "componentType" : 5123,
            "count" : 2880,
            "type" : "SCALAR"
        },
        {
            "bufferView" : 9,
            "componentType" : 5126,
            "count" : 12214,
            "max" : [
                1.0683889389038086,
                1.077576756477356,
                1.0672308206558228
            ],
            "min" : [
                -1.067230463027954,
                -0.5929493308067322,
                -1.067230463027954
            ],
            "type" : "VEC3"
        },
        {
            "bufferView" : 10,
            "componentType" : 5126,
            "count" : 12214,
            "type" : "VEC3"
        },
        {
            "bufferView" : 11,
            "componentType" : 5126,
            "count" : 12214,
            "type" : "VEC2"
        },
        {
            "bufferView" : 12,
            "componentType" : 5123,
            "count" : 61392,
            "type" : "SCALAR"
        }
    ],
    "bufferViews" : [
        {
            "buffer" : 0,
            "byteLength" : 10128,
            "byteOffset" : 0
        },
        {
            "buffer" : 0,
            "byteLength" : 10128,
            "byteOffset" : 10128
        },
        {
            "buffer" : 0,
            "byteLength" : 6752,
            "byteOffset" : 20256
        },
        {
            "buffer" : 0,
            "byteLength" : 6888,
            "byteOffset" : 27008
        },
        {
            "buffer" : 0,
            "byteLength" : 47855,
            "byteOffset" : 33896
        },
        {
            "buffer" : 0,
            "byteLength" : 7248,
            "byteOffset" : 81752
        },
        {
            "buffer" : 0,
            "byteLength" : 7248,
            "byteOffset" : 89000
        },
        {
            "buffer" : 0,
            "byteLength" : 4832,
            "byteOffset" : 96248
        },
        {
            "buffer" : 0,
            "byteLength" : 5760,
            "byteOffset" : 101080
        },
        {
            "buffer" : 0,
            "byteLength" : 146568,
            "byteOffset" : 106840
        },
        {
            "buffer" : 0,
            "byteLength" : 146568,
            "byteOffset" : 253408
        },
        {
            "buffer" : 0,
            "byteLength" : 97712,
            "byteOffset" : 399976
        },
        {
            "buffer" : 0,
            "byteLength" : 122784,
            "byteOffset" : 497688
        }
    ],
    "samplers" : [
        {
            "magFilter" : 9729,
            "minFilter" : 9987
        }
    ],
    "buffers" : [
        {
            "byteLength" : 620472,
            "uri" : "data:application/octet-stream;base64,"
        }
    ]
}
